<?xml version="1.0" encoding="UTF-8"?>
<svg xmlns="http://www.w3.org/2000/svg" xmlns:xlink="http://www.w3.org/1999/xlink"
     width="1200" height="1000" viewBox="0 -500 600 500">
<defs>
</defs>
<rect x="0" y="-500" width="600" height="500" fill="#fbfbfb" />
<text x="300" y="-450" font-size="20.0" fill="#000000" text-anchor="middle" transform="translate(0,10.0)">My neighbourhood in Mogadishu</text>
<rect x="25" y="-400" width="166.66667" height="200" fill="#dddddd" />
<rect x="216.6667" y="-400" width="166.66667" height="200" fill="#dddddd" />
<rect x="408.3333" y="-400" width="166.66667" height="200" fill="#dddddd" />
<text x="107" y="-375" font-size="12.0" fill="#000000" font-weight="bold" text-anchor="middle" transform="translate(0,6.0)">Potential Cases</text>
<text x="107" y="-360" font-size="12.0" fill="#000000" font-weight="bold" text-anchor="middle" transform="translate(0,6.0)">Reported</text>
<text x="300" y="-375" font-size="12.0" fill="#000000" font-weight="bold" text-anchor="middle" transform="translate(0,6.0)">Vulnerable Individuals</text>
<text x="300" y="-360" font-size="12.0" fill="#000000" font-weight="bold" text-anchor="middle" transform="translate(0,6.0)">Reported</text>
<text x="493" y="-375" font-size="12.0" fill="#000000" font-weight="bold" text-anchor="middle" transform="translate(0,6.0)">High Risk Potential</text>
<text x="493" y="-360" font-size="12.0" fill="#000000" font-weight="bold" text-anchor="middle" transform="translate(0,6.0)">Cases Reported</text>
<text x="107" y="-300" font-size="50.0" fill="#000000" text-anchor="middle" transform="translate(0,25.0)">69%</text>
<text x="300" y="-300" font-size="50.0" fill="#000000" text-anchor="middle" transform="translate(0,25.0)">69%</text>
<text x="493" y="-300" font-size="50.0" fill="#000000" text-anchor="middle" transform="translate(0,25.0)">69%</text>
<text x="107" y="-230" font-size="10.0" fill="#000000" text-anchor="middle" transform="translate(0,5.0)">Total Reports: 100</text>
<text x="300" y="-230" font-size="10.0" fill="#000000" text-anchor="middle" transform="translate(0,5.0)">Total Reports: 100</text>
<text x="493" y="-230" font-size="10.0" fill="#000000" text-anchor="middle" transform="translate(0,5.0)">Total Reports: 100</text>
<path d="M25,-175 L575,-175" stroke="#dddddd" stroke-width="2" fill="none" />
<text x="150" y="-145" font-size="12.0" fill="#000000" font-weight="bold" text-anchor="middle" transform="translate(0,6.0)">Greatest Need In Your Community</text>
<text x="110" y="-75" font-size="25.0" fill="#000000" font-weight="bold" text-anchor="middle" transform="translate(0,12.5)">Need</text>
<text x="450" y="-145" font-size="12.0" fill="#000000" font-weight="bold" text-anchor="middle" transform="translate(0,6.0)">Individuals Self Isolating</text>
<text x="425" y="-75" font-size="50.0" fill="#000000" text-anchor="middle" transform="translate(0,25.0)">69%</text>
</svg>